<svg xmlns="http://www.w3.org/2000/svg" preserveAspectRatio="none" viewBox="0 0 900 600" width="900" height="600"><path d="M0 425L21.5 424.7C43 424.3 86 423.7 128.8 421.7C171.7 419.7 214.3 416.3 257.2 416.7C300 417 343 421 385.8 423.8C428.7 426.7 471.3 428.3 514.2 425.5C557 422.7 600 415.3 642.8 417.3C685.7 419.3 728.3 430.7 771.2 435.7C814 440.7 857 439.3 878.5 438.7L900 438L900 601L878.5 601C857 601 814 601 771.2 601C728.3 601 685.7 601 642.8 601C600 601 557 601 514.2 601C471.3 601 428.7 601 385.8 601C343 601 300 601 257.2 601C214.3 601 171.7 601 128.8 601C86 601 43 601 21.5 601L0 601Z" fill="#123a44"></path><path d="M0 458L21.5 453.7C43 449.3 86 440.7 128.8 441.3C171.7 442 214.3 452 257.2 451C300 450 343 438 385.8 433.7C428.7 429.3 471.3 432.7 514.2 440.3C557 448 600 460 642.8 465.3C685.7 470.7 728.3 469.3 771.2 465.7C814 462 857 456 878.5 453L900 450L900 601L878.5 601C857 601 814 601 771.2 601C728.3 601 685.7 601 642.8 601C600 601 557 601 514.2 601C471.3 601 428.7 601 385.8 601C343 601 300 601 257.2 601C214.3 601 171.7 601 128.8 601C86 601 43 601 21.5 601L0 601Z" fill="#1c4a56"></path><path d="M0 482L21.5 477C43 472 86 462 128.8 460.5C171.7 459 214.3 466 257.2 473.7C300 481.3 343 489.7 385.8 484C428.7 478.3 471.3 458.7 514.2 457.3C557 456 600 473 642.8 477.2C685.7 481.3 728.3 472.7 771.2 474C814 475.3 857 486.7 878.5 492.3L900 498L900 601L878.5 601C857 601 814 601 771.2 601C728.3 601 685.7 601 642.8 601C600 601 557 601 514.2 601C471.3 601 428.7 601 385.8 601C343 601 300 601 257.2 601C214.3 601 171.7 601 128.8 601C86 601 43 601 21.5 601L0 601Z" fill="#2a4f63"></path><path d="M0 497L21.5 501.3C43 505.7 86 514.3 128.8 520.5C171.7 526.7 214.3 530.3 257.2 531.2C300 532 343 530 385.8 522.8C428.7 515.7 471.3 503.3 514.2 500.5C557 497.7 600 504.3 642.8 512.5C685.7 520.7 728.3 530.3 771.2 533.3C814 536.3 857 532.7 878.5 530.8L900 529L900 601L878.5 601C857 601 814 601 771.2 601C728.3 601 685.7 601 642.8 601C600 601 557 601 514.2 601C471.3 601 428.7 601 385.8 601C343 601 300 601 257.2 601C214.3 601 171.7 601 128.8 601C86 601 43 601 21.5 601L0 601Z" fill="#3a4a6a"></path><path d="M0 559L21.5 559.7C43 560.3 86 561.7 128.8 563.7C171.7 565.7 214.3 568.3 257.2 568.8C300 569.3 343 567.7 385.8 561.8C428.7 556 471.3 546 514.2 539.2C557 532.3 600 528.7 642.8 527.7C685.7 526.7 728.3 528.3 771.2 531.7C814 535 857 540 878.5 542.5L900 545L900 601L878.5 601C857 601 814 601 771.2 601C728.3 601 685.7 601 642.8 601C600 601 557 601 514.2 601C471.3 601 428.7 601 385.8 601C343 601 300 601 257.2 601C214.3 601 171.7 601 128.8 601C86 601 43 601 21.5 601L0 601Z" fill="#3f3f66"></path></svg>